# xmcd
#
# Track frame offsets: 
#        150
#        16037
#        29822
#        37680
#        52180
#        67905
#        72630
#        86920
#        100070
#        121550
#        136705
#        156940
#        172635
#        192875
#        210885
#        235057
#        253660
#        261350
#        275022
#        295745
#
# Disc length: 4143 seconds
#
# Revision: 6
# Processed by: cddbd v1.5.2PL0 Copyright (c) Steve Scherf et al.
# Submitted via: ExactAudioCopy v0.99pb5
#
DISCID=10102d14
DTITLE=Steve Earle - Townes van Zandt - Guy Clark - Together at the Bl
DTITLE=uebird Café
DYEAR=2001
DGENRE=Folk
TTITLE0=Baby Took A Limo To Memphis (Guy Clark)
TTITLE1=My Old Friend The Blues (Steve Earle)
TTITLE2=Introduction to Katie Belle (Townes Van Zandt)
TTITLE3=Katie Belle (Townes Van Zandt)
TTITLE4=The Cape (Guy Clark)
TTITLE5=Introduction to Valentine's Day (Steve Earle)
TTITLE6=Valentine's Day (Steve Earle)
TTITLE7=Ain't Leavin Your Love (Townes Van Zandt)
TTITLE8=Randall Knife (Guy Clark)
TTITLE9=Tom Ames' Prayer (Steve Earle)
TTITLE10=The Interfaith Dental Clinic (Townes Van Zandt)
TTITLE11=A Song For (Townes Van Zandt)
TTITLE12=Dublin Blues (Guy Clark)
TTITLE13=I Ain't Ever Satisfied (Steve Earle)
TTITLE14=Panco And Lefty (Townes Van Zandt)
TTITLE15=Immigrant Eyes (Guy Clark)
TTITLE16=Sirocco's Pizza (Steve Earle)
TTITLE17=Mercenary Song (Steve Earle)
TTITLE18=Tecumseh Valley (Townes Van Zandt)
TTITLE19=Copperhead Road (Steve Earle)
EXTD=
EXTT0=
EXTT1=
EXTT2=
EXTT3=
EXTT4=
EXTT5=
EXTT6=
EXTT7=
EXTT8=
EXTT9=
EXTT10=
EXTT11=
EXTT12=
EXTT13=
EXTT14=
EXTT15=
EXTT16=
EXTT17=
EXTT18=
EXTT19=
PLAYORDER=
